<svg width="15" height="13" viewBox="0 0 15 13" fill="none" xmlns="http://www.w3.org/2000/svg">
<path d="M1.4397 4.23998C1.62945 4.37388 2.20142 4.77155 3.15564 5.43279C4.1099 6.09404 4.84092 6.60318 5.34874 6.96025C5.40453 6.99939 5.52307 7.08447 5.7044 7.21561C5.88576 7.34684 6.03646 7.45288 6.15637 7.53377C6.27637 7.61463 6.42144 7.70534 6.59172 7.80576C6.76194 7.90609 6.9224 7.98155 7.07307 8.03151C7.22376 8.08188 7.36326 8.10683 7.49159 8.10683H7.5H7.50844C7.63677 8.10683 7.77632 8.08185 7.92702 8.03151C8.07763 7.98155 8.23823 7.906 8.40831 7.80576C8.57847 7.70523 8.72354 7.6146 8.84354 7.53377C8.96354 7.45288 9.11412 7.34684 9.29554 7.21561C9.47684 7.08435 9.59552 6.99939 9.65132 6.96025C10.1646 6.60318 11.4705 5.69634 13.5687 4.2398C13.976 3.95533 14.3164 3.61207 14.5897 3.21026C14.8633 2.80863 15 2.3873 15 1.9465C15 1.57814 14.8674 1.26282 14.6023 1.00057C14.3372 0.73826 14.0233 0.607178 13.6607 0.607178H1.33923C0.909571 0.607178 0.578919 0.752245 0.347334 1.04238C0.115778 1.33257 0 1.6953 0 2.13053C0 2.48208 0.153511 2.86305 0.460385 3.27318C0.76723 3.68334 1.09378 4.00564 1.4397 4.23998Z" fill="#337D5A"/>
<path d="M14.1628 5.13568C12.3327 6.37441 10.943 7.3371 9.99446 8.02356C9.67638 8.25784 9.41835 8.44073 9.22019 8.57178C9.02203 8.70292 8.75849 8.83685 8.42918 8.9735C8.1 9.11036 7.79321 9.17858 7.50856 9.17858H7.50003H7.49161C7.20702 9.17858 6.90006 9.11036 6.57087 8.9735C6.24169 8.83685 5.97797 8.70292 5.77987 8.57178C5.58182 8.44073 5.3237 8.25784 5.00566 8.02356C4.25227 7.47114 2.86557 6.50839 0.84551 5.13568C0.527348 4.92377 0.245541 4.68086 0 4.40747V11.0535C0 11.422 0.131082 11.7372 0.393393 11.9994C0.655645 12.2618 0.970992 12.393 1.33932 12.393H13.6608C14.029 12.393 14.3444 12.2618 14.6066 11.9994C14.869 11.7371 15 11.422 15 11.0535V4.40747C14.76 4.67521 14.4811 4.91811 14.1628 5.13568Z" fill="#337D5A"/>
</svg>
